<svg width="24" height="24" viewBox="0 0 24 24" fill="none" xmlns="http://www.w3.org/2000/svg">
<path d="M11.7023 11.1788C13.6847 11.1788 15.2917 9.57179 15.2917 7.58941C15.2917 5.60704 13.6847 4 11.7023 4C9.71992 4 8.11288 5.60704 8.11288 7.58941C8.11288 9.57179 9.71992 11.1788 11.7023 11.1788Z" fill="#4584FF"/>
<path d="M19.2799 16.7501C19.2799 18.109 15.8833 19.7675 11.7023 19.7675C7.52122 19.7675 4.12463 17.9632 4.12463 16.7501C4.12463 15.0763 7.52122 12.5887 11.7023 12.5887C15.8833 12.5887 19.2799 15.0763 19.2799 16.7501Z" fill="#4584FF"/>
<path d="M16.9999 9.03636H20.9999M19.0362 7V11" stroke="#4584FF" stroke-width="1.2" stroke-linecap="round" stroke-linejoin="round"/>
</svg>
